<svg version="1.1" id="Layer_1" xmlns="http://www.w3.org/2000/svg" xmlns:xlink="http://www.w3.org/1999/xlink" x="0px" y="0px"
	 width="100%" viewBox="0 0 260 204" enable-background="new 0 0 260 204" xml:space="preserve">
<path fill="#000000" opacity="1.000000" stroke="none" 
	d="
M158.000000,205.000000 
	C105.333336,205.000000 53.166672,205.000000 1.000007,205.000000 
	C1.000005,137.000000 1.000005,69.000015 1.000002,1.000016 
	C87.666656,1.000011 174.333313,1.000011 261.000000,1.000005 
	C261.000000,68.999985 261.000000,136.999969 261.000000,204.999969 
	C226.833328,205.000000 192.666672,205.000000 158.000000,205.000000 
M72.968529,154.420746 
	C72.665764,154.228073 72.363007,154.035385 72.060303,153.907776 
	C72.060303,153.907776 72.123962,153.894318 71.853516,153.272736 
	C69.581528,151.242386 67.309540,149.212051 64.226059,147.045822 
	C62.880062,147.128601 61.534061,147.211395 59.695789,147.324478 
	C60.323009,149.002457 60.746552,150.135559 61.268024,151.696747 
	C61.474087,151.934967 61.734669,152.056259 62.051384,151.950851 
	C62.051384,151.950851 61.941616,151.949219 62.025791,152.595123 
	C62.344276,153.092361 62.662766,153.589584 62.998528,154.001419 
	C62.998528,154.001419 62.913128,153.984177 63.063705,154.533783 
	C63.381775,154.716812 63.699848,154.899841 64.027840,154.976547 
	C64.027840,154.976547 63.921528,154.966583 64.104149,155.526093 
	C64.414680,155.759369 64.725212,155.992645 65.031448,156.473816 
	C65.031448,156.473816 65.164970,156.682693 65.097786,157.306625 
	C65.393433,157.565735 65.689079,157.824829 65.993629,158.005310 
	C65.993629,158.005310 65.914993,157.996429 66.067619,158.536240 
	C66.379677,158.719727 66.691734,158.903198 67.003670,158.996353 
	C67.003670,158.996353 66.913338,158.996445 67.067924,159.536972 
	C67.380898,159.720535 67.693878,159.904083 68.009712,159.991684 
	C68.009712,159.991684 67.913757,159.988785 68.072021,160.530655 
	C68.386421,160.714722 68.700829,160.898804 69.015244,160.984207 
	C69.015244,160.984207 68.916573,160.984131 69.083763,161.518631 
	C69.393738,161.706741 69.703712,161.894852 70.009972,161.989044 
	C70.009972,161.989044 69.916031,161.992706 70.067123,162.535034 
	C70.380173,162.719360 70.693222,162.903687 71.009232,162.992157 
	C71.009232,162.992157 70.913383,162.989136 71.071983,163.530762 
	C71.386314,163.714828 71.700645,163.898880 72.014839,163.984543 
	C72.014839,163.984543 71.916451,163.984650 72.084755,164.518951 
	C72.395432,164.705750 72.706108,164.892548 73.016312,164.983536 
	C73.016312,164.983536 72.920509,164.983963 73.085495,165.518906 
	C73.395813,165.705795 73.706123,165.892670 74.016380,165.983643 
	C74.016380,165.983643 73.920448,165.983658 74.085487,166.519012 
	C74.395561,166.707275 74.705635,166.895538 75.015022,166.985336 
	C75.015022,166.985336 74.916550,166.985992 75.070740,167.527664 
	C75.383965,167.711716 75.697189,167.895782 75.993141,168.008560 
	C75.993141,168.008560 75.921875,168.025864 76.194427,168.611588 
	C76.812401,168.763702 77.430374,168.915817 78.029457,168.962280 
	C78.029457,168.962280 77.923782,168.981140 78.070961,169.526611 
	C78.384308,169.713303 78.697655,169.899994 79.007492,169.991013 
	C79.007492,169.991013 78.911812,169.994492 79.066635,170.535538 
	C79.380432,170.717575 79.694229,170.899628 80.001884,170.997726 
	C80.001884,170.997726 79.917938,171.003815 80.155792,171.561081 
	C80.532082,171.655823 80.908371,171.750565 81.486832,171.974594 
	C81.486832,171.974594 81.726753,171.969513 82.020554,172.494064 
	C82.356613,172.688171 82.692673,172.882278 83.009933,172.983627 
	C83.009933,172.983627 82.917145,173.002380 83.153816,173.557159 
	C83.528549,173.644165 83.903290,173.731171 84.500961,173.950638 
	C84.500961,173.950638 84.759804,173.966461 85.031784,174.496338 
	C85.363708,174.691360 85.695633,174.886368 86.009537,174.985214 
	C86.009537,174.985214 85.913368,175.003220 86.133430,175.570007 
	C86.509094,175.659332 86.884758,175.748672 87.480499,175.958420 
	C87.480499,175.958420 87.731071,175.946182 88.078796,176.511673 
	C88.485870,176.612808 88.892944,176.713943 89.506432,176.943176 
	C89.506432,176.943176 89.749352,176.944550 90.067055,177.525574 
	C90.470459,177.632614 90.873856,177.739655 91.501808,177.967941 
	C91.501808,177.967941 91.756866,177.959808 92.078827,178.507385 
	C92.464836,178.611206 92.850845,178.715027 93.497002,178.947662 
	C93.497002,178.947662 93.786972,178.961319 94.084419,179.521942 
	C94.470650,179.626541 94.856880,179.731140 95.463242,179.954407 
	C95.463242,179.954407 95.712349,179.932175 96.076263,180.535828 
	C96.739441,180.618240 97.402611,180.700653 98.698334,181.190094 
	C113.379425,187.496613 128.659271,188.347214 143.990845,184.900406 
	C151.797699,183.145294 159.192429,179.557022 167.404724,176.860992 
	C167.682114,176.555725 167.959488,176.250443 168.503204,175.944031 
	C168.503204,175.944031 168.740356,175.822815 169.346069,175.889465 
	C169.591446,175.594757 169.836838,175.300034 169.993332,174.990082 
	C169.993332,174.990082 169.978058,175.078964 170.543762,174.908249 
	C170.769730,174.591660 170.995697,174.275085 171.506317,173.937958 
	C171.506317,173.937958 171.764267,173.815872 172.363419,173.890060 
	C172.604401,173.595688 172.845367,173.301300 172.996552,172.994751 
	C172.996552,172.994751 172.984314,173.084549 173.560333,172.920197 
	C173.789551,172.599106 174.018768,172.278030 174.505341,171.943008 
	C174.505341,171.943008 174.727188,171.811783 175.328079,171.867798 
	C175.576706,171.579697 175.825333,171.291580 176.003601,171.006699 
	C176.003601,171.006699 176.007462,171.077026 176.717682,170.990372 
	C177.240784,170.307373 177.763901,169.624359 178.511124,168.953461 
	C178.511124,168.953461 178.696411,168.826782 179.305374,168.863113 
	C179.562103,168.575546 179.818817,168.287994 180.003967,168.011017 
	C180.003967,168.011017 180.014618,168.082596 180.716385,167.999847 
	C184.096191,164.389755 187.475983,160.779648 190.991867,156.436462 
	C192.052902,155.289627 193.284943,154.254181 194.125519,152.963745 
	C194.921585,151.741669 195.852264,150.174179 195.671387,148.909027 
	C195.560455,148.132950 193.531647,147.331711 192.257202,147.077499 
	C188.442719,146.316635 187.298248,149.366150 185.192154,151.999680 
	C182.430862,154.644302 179.669571,157.288910 176.971573,159.970291 
	C176.971573,159.970291 176.935379,159.906662 176.380280,160.158875 
	C175.969360,160.794495 175.558441,161.430115 174.793732,162.655197 
	C170.421768,165.794617 166.140472,169.070709 161.658112,172.043640 
	C153.518433,177.442307 144.163513,179.130386 134.703888,179.887482 
	C128.278000,180.401779 121.559265,181.033295 115.366905,179.731506 
	C107.660225,178.111389 100.360825,174.553925 92.740570,171.385910 
	C92.516220,171.096939 92.238091,171.028488 92.093185,171.187286 
	C92.093185,171.187286 92.099976,171.000275 91.946808,170.453949 
	C91.632713,170.265732 91.318619,170.077515 91.002647,170.031967 
	C91.002647,170.031967 91.145309,170.033875 90.775749,169.470398 
	C90.350769,169.345779 89.925789,169.221161 89.502045,169.034592 
	C89.502045,169.034592 89.457985,169.078140 89.052666,168.563461 
	C88.698685,168.332993 88.344704,168.102524 88.005470,168.009415 
	C88.005470,168.009415 88.142845,167.994705 87.780205,167.429840 
	C87.353294,167.319138 86.926384,167.208435 86.511063,167.030762 
	C86.511063,167.030762 86.467834,167.083099 86.059669,166.570541 
	C85.715126,166.320129 85.370575,166.069733 85.040161,165.910294 
	C85.040161,165.910294 85.131126,165.896133 84.885017,165.285202 
	C83.931320,164.802734 82.977623,164.320267 82.022507,163.964035 
	C82.022507,163.964035 82.148727,163.965424 81.966660,163.437576 
	C81.662483,163.238998 81.358299,163.040436 81.054291,162.944443 
	C81.054291,162.944443 81.156853,162.944229 80.968292,162.423187 
	C80.663940,162.230118 80.359596,162.037048 80.055481,161.945374 
	C80.055481,161.945374 80.156868,161.945114 79.963257,161.426544 
	C79.659607,161.232437 79.355957,161.038330 79.052330,160.947388 
	C79.052330,160.947388 79.155487,160.947311 78.963615,160.427628 
	C78.659889,160.233170 78.356155,160.038696 78.052391,159.947510 
	C78.052391,159.947510 78.155663,159.947525 77.964455,159.428696 
	C77.661980,159.233337 77.359497,159.037994 77.056801,158.941833 
	C77.056801,158.941833 77.155998,158.942001 76.968628,158.421722 
	C76.665062,158.228561 76.361488,158.035416 76.057907,157.941940 
	C76.057907,157.941940 76.157585,157.941925 75.968918,157.421814 
	C75.665192,157.228607 75.361465,157.035385 75.057739,156.942047 
	C75.057739,156.942047 75.157600,156.941986 74.968979,156.421814 
	C74.665230,156.228592 74.361488,156.035370 74.057747,155.942062 
	C74.057747,155.942062 74.157639,155.942017 73.969566,155.422562 
	C73.666603,155.229263 73.363640,155.035965 73.060684,154.939117 
	C73.060684,154.939117 73.157127,154.939072 72.968529,154.420746 
M182.982010,47.017960 
	C182.982010,47.017960 183.078903,47.019760 182.907532,46.487724 
	C182.597626,46.300877 182.287735,46.114025 181.978256,46.021908 
	C181.978256,46.021908 182.072983,46.021503 181.906967,45.488491 
	C181.598160,45.300430 181.289337,45.112370 180.983490,45.017548 
	C180.983490,45.017548 181.076736,45.014610 180.920349,44.477516 
	C180.609406,44.293892 180.298447,44.110268 179.995895,44.005569 
	C179.995895,44.005569 180.074829,43.997185 179.848709,43.451397 
	C179.484314,43.358078 179.119904,43.264763 178.509796,43.035988 
	C178.509796,43.035988 178.229507,43.023346 177.961533,42.498096 
	C177.632080,42.306973 177.302612,42.115849 176.976440,42.025234 
	C176.976440,42.025234 177.076950,42.021980 176.910599,41.486881 
	C176.599487,41.301170 176.288391,41.115459 175.989655,41.014385 
	C175.989655,41.014385 176.074295,41.002033 175.849960,40.454330 
	C175.485199,40.360062 175.120453,40.265793 174.506683,40.035648 
	C174.506683,40.035648 174.223358,40.021618 173.956711,39.500290 
	C173.629501,39.310360 173.302307,39.120430 172.989929,39.014881 
	C172.989929,39.014881 173.074310,39.000069 172.855438,38.458141 
	C172.496918,38.363468 172.138382,38.268795 171.512680,38.035564 
	C171.512680,38.035564 171.212433,38.014290 170.960526,37.484600 
	C170.632675,37.294842 170.304810,37.105080 169.992920,37.011673 
	C169.992920,37.011673 170.089279,36.995716 169.900589,36.435940 
	C169.543945,36.341103 169.187317,36.246265 168.221542,35.712318 
	C162.312500,33.392284 156.472672,30.872677 150.479736,28.794601 
	C138.731583,24.720875 126.419304,24.608244 114.486084,26.454678 
	C97.468086,29.087879 81.970078,35.927826 70.072929,49.015430 
	C65.802376,53.713306 59.968845,57.588337 59.563438,65.069962 
	C63.492748,67.638321 66.165466,65.241043 69.543510,62.804817 
	C70.609680,61.393036 71.562668,59.875633 72.763161,58.589199 
	C76.417908,54.672787 80.168144,50.845490 84.250443,46.393406 
	C94.819229,39.038631 106.176224,33.728455 120.144859,33.013157 
	C125.798668,32.931976 131.452484,32.850800 137.951431,32.932102 
	C149.893906,33.719116 160.324417,38.543919 170.053894,45.535938 
	C170.346298,45.744152 170.638718,45.952362 170.929260,46.090511 
	C170.929260,46.090511 170.859253,46.093742 171.135284,46.707489 
	C173.060165,48.186390 174.985062,49.665287 176.918091,51.080254 
	C176.918091,51.080254 176.854095,51.087929 176.959991,51.782757 
	C178.275208,52.903992 179.590408,54.025227 180.920792,55.084667 
	C180.920792,55.084667 180.859375,55.101330 180.956024,55.800049 
	C183.974884,58.899296 186.993744,61.998543 190.732986,65.290894 
	C193.069702,66.087494 195.487061,67.227661 196.709442,63.243317 
	C195.817352,62.133503 194.925262,61.023693 194.006531,59.997524 
	C194.006531,59.997524 194.090179,60.024120 194.030136,59.376118 
	C193.695679,58.891682 193.361206,58.407246 193.005127,57.995842 
	C193.005127,57.995842 193.078186,58.017429 192.906754,57.486542 
	C192.597015,57.301037 192.287292,57.115532 191.976898,57.023178 
	C191.976898,57.023178 192.070038,57.023861 191.895721,56.492149 
	C191.586060,56.302845 191.276398,56.113537 190.945724,56.028629 
	C190.945724,56.028629 191.050095,56.049694 190.953781,55.414894 
	C190.640411,54.917831 190.327026,54.420769 189.998703,54.000713 
	C189.998703,54.000713 190.075699,54.015697 189.928223,53.470627 
	C189.614426,53.285461 189.300644,53.100292 188.986938,53.013069 
	C188.986938,53.013069 189.084885,53.013004 188.929504,52.469883 
	C188.614807,52.286301 188.300125,52.102718 187.985535,52.015064 
	C187.985535,52.015064 188.081451,52.015011 187.916428,51.479519 
	C187.605789,51.292557 187.295135,51.105595 186.984985,51.014584 
	C186.984985,51.014584 187.080933,51.014137 186.928955,50.470039 
	C186.614807,50.285095 186.300644,50.100155 185.986588,50.013420 
	C185.986588,50.013420 186.084793,50.013355 185.929596,49.469826 
	C185.615112,49.284992 185.300629,49.100159 184.986435,49.013645 
	C184.986435,49.013645 185.084747,49.013393 184.929642,48.469826 
	C184.615128,48.285007 184.300629,48.100189 183.986649,48.013523 
	C183.986649,48.013523 184.084793,48.013023 183.929337,47.469597 
	C183.614151,47.286747 183.298950,47.103901 182.982010,47.017960 
M118.471588,143.031509 
	C118.646286,143.019516 118.820984,143.007523 119.930458,143.056900 
	C125.620056,143.037277 131.309647,143.017639 137.691864,142.490540 
	C137.731903,125.314568 137.771942,108.138603 138.396255,90.310661 
	C144.865631,90.231697 151.336487,90.205597 157.802902,90.022293 
	C158.894287,89.991348 161.694763,91.053909 160.007919,86.955467 
	C159.648849,81.300087 159.289780,75.644699 158.508118,69.239784 
	C138.378189,69.164406 118.248283,69.079636 98.118286,69.053322 
	C97.425560,69.052422 96.732071,69.636719 95.929092,70.884766 
	C95.927139,76.518761 95.925186,82.152748 95.485359,88.341232 
	C96.855171,88.897835 98.205399,89.868462 99.598427,89.934372 
	C103.998810,90.142578 108.419792,89.899506 112.822754,90.078453 
	C114.211182,90.134880 115.567940,90.970665 116.737350,92.307343 
	C116.795242,108.468758 116.853134,124.630165 116.992142,141.455505 
	C117.316650,141.933701 117.641151,142.411896 118.471588,143.031509 
M26.241577,124.421303 
	C26.488176,130.608017 26.734774,136.794739 27.617418,142.903473 
	C27.828514,142.870819 28.039608,142.838181 29.146919,142.862000 
	C43.398407,142.888824 57.650387,142.975266 71.900681,142.857590 
	C73.461586,142.844711 75.012802,141.658768 76.789627,141.413055 
	C77.192192,141.608887 77.594757,141.804718 78.768745,142.051865 
	C86.401093,140.964691 90.990875,136.576782 92.813377,128.403748 
	C92.874710,127.666031 92.936035,126.928307 93.718582,125.698425 
	C93.778496,121.849747 93.838409,118.001076 93.896042,113.374977 
	C91.997124,104.886742 87.177856,99.686569 79.764824,98.936584 
	C73.605789,98.313469 67.385681,98.275986 61.190392,98.036949 
	C58.202034,97.921638 55.165688,98.239281 52.228481,97.819382 
	C48.746609,97.321602 45.178684,96.443909 45.295616,91.496933 
	C45.465191,91.032410 45.634766,90.567894 46.010334,90.014122 
	C46.010334,90.014122 46.096603,89.806870 47.019005,89.850311 
	C61.914310,89.850311 76.809616,89.850311 92.060524,89.850311 
	C92.060524,83.757607 92.150536,78.131592 91.967728,72.514450 
	C91.938858,71.627174 90.677483,70.780006 89.981392,70.008636 
	C89.981392,70.008636 90.075729,70.013245 89.593750,69.282845 
	C74.260895,69.200684 58.928059,69.109444 43.595097,69.075310 
	C43.075329,69.074150 42.554283,69.647667 41.407776,70.328560 
	C37.742538,71.783119 33.624096,72.618790 30.544924,74.873657 
	C27.706274,76.952393 24.971664,80.263214 24.020758,83.559166 
	C22.778296,87.865662 22.927410,92.715851 23.199053,97.289299 
	C23.906719,109.203682 25.484552,111.373848 40.656673,115.620941 
	C48.424217,115.727348 56.194794,115.735619 63.958218,115.975395 
	C68.960777,116.129890 71.066284,118.687553 69.055458,122.920341 
	C56.759766,122.945877 44.463722,122.931770 32.168793,123.042381 
	C30.449514,123.057854 28.735744,123.685684 26.241577,124.421303 
M180.986481,142.718475 
	C181.322662,141.023575 181.935730,139.330994 181.949951,137.633392 
	C182.040070,126.871193 181.927155,116.106819 182.087952,105.346260 
	C182.108154,103.993736 183.340088,102.659325 184.300629,101.891617 
	C187.592758,106.621964 190.834442,111.388412 194.188507,116.074425 
	C199.551575,123.567284 205.373489,130.768921 210.210373,138.583313 
	C212.206223,141.807800 214.203857,143.088928 217.598114,143.069107 
	C223.414886,143.035126 229.231644,143.003754 235.898468,142.924561 
	C236.244171,142.264282 236.890350,141.604797 236.892075,140.943634 
	C236.951416,118.193077 236.971497,95.442284 236.876068,72.692024 
	C236.872330,71.800644 235.680847,70.914238 234.349411,69.830147 
	C230.695633,69.863525 227.035889,70.041473 223.389725,69.890686 
	C219.542374,69.731590 217.990372,71.366325 218.028809,75.192513 
	C218.132492,85.510284 218.066147,95.829956 218.031998,106.148750 
	C218.026276,107.879730 217.844299,109.610130 217.659531,112.790794 
	C212.297836,105.713135 207.823929,99.863808 203.419937,93.962326 
	C201.939728,91.978806 200.354889,89.997162 199.300705,87.784615 
	C193.545609,75.705742 185.962082,66.742867 170.694580,69.891922 
	C169.082779,70.224373 167.381439,70.122719 164.905167,70.201759 
	C164.611496,70.719559 164.062027,71.236824 164.060928,71.755249 
	C164.012390,94.709198 163.996017,117.663315 164.079559,140.617035 
	C164.082230,141.351425 165.169281,142.081879 166.713852,142.860809 
	C171.209518,142.844757 175.705200,142.828690 180.986481,142.718475 
z"/>
<path fill="#242226" opacity="1.000000" stroke="none" 
	d="
M44.910423,91.812874 
	C45.178684,96.443909 48.746609,97.321602 52.228481,97.819382 
	C55.165688,98.239281 58.202034,97.921638 61.190392,98.036949 
	C67.385681,98.275986 73.605789,98.313469 79.764824,98.936584 
	C87.177856,99.686569 91.997124,104.886742 93.684784,114.102249 
	C93.314812,118.616547 93.156090,122.403572 92.997360,126.190590 
	C92.936035,126.928307 92.874710,127.666031 92.516167,128.918671 
	C88.144707,132.923660 84.061157,136.402985 80.004807,139.913727 
	C79.278023,140.542755 78.663620,141.301620 77.997330,142.000534 
	C77.594757,141.804718 77.192192,141.608887 76.217361,141.257202 
	C65.599167,141.426804 55.552570,141.733109 45.507572,142.085190 
	C39.753937,142.286865 34.002907,142.562958 28.250704,142.805557 
	C28.039608,142.838181 27.828514,142.870819 27.322182,142.476303 
	C27.019012,136.376266 27.011082,130.703384 27.449436,124.874557 
	C30.707510,124.672714 33.519302,124.626831 36.331097,124.580948 
	C47.568989,124.397583 58.806877,124.214218 70.357475,123.831245 
	C73.514091,119.495674 72.116661,116.717705 67.488037,114.708466 
	C58.757626,114.695641 50.399303,114.829506 41.717468,114.979294 
	C40.962109,114.998489 40.530270,115.001770 40.098427,115.005051 
	C25.484552,111.373848 23.906719,109.203682 23.199053,97.289299 
	C22.927410,92.715851 22.778296,87.865662 24.020758,83.559166 
	C24.971664,80.263214 27.706274,76.952393 30.544924,74.873657 
	C33.624096,72.618790 37.742538,71.783119 42.184052,70.199287 
	C58.665459,70.051086 74.370590,70.032166 90.075729,70.013245 
	C90.075729,70.013245 89.981392,70.008636 90.029854,70.433380 
	C90.117599,74.835037 89.960373,78.826355 90.250313,82.784912 
	C90.552315,86.908081 88.946053,88.289825 84.852371,88.212975 
	C73.916336,88.007683 62.972610,88.067436 52.034927,88.226768 
	C50.048237,88.255707 48.075684,89.255348 46.096603,89.806870 
	C46.096603,89.806870 46.010334,90.014122 45.909489,90.234505 
	C45.509239,90.907547 45.209831,91.360214 44.910423,91.812874 
M79.791420,116.156120 
	C80.073273,127.673973 78.372353,129.404388 66.725754,129.443054 
	C64.893448,129.449142 63.061104,129.445114 61.228783,129.448532 
	C53.233406,129.463409 45.233284,129.348938 37.247910,129.639404 
	C36.088337,129.681580 34.999332,131.663788 33.877678,132.748260 
	C34.977261,133.683640 36.080570,135.434265 37.175846,135.429245 
	C49.141434,135.374466 61.115173,135.250290 73.066345,134.701691 
	C78.782684,134.439270 83.137032,131.596817 84.873344,125.642036 
	C86.840622,118.895119 86.537018,112.374229 80.659698,107.953880 
	C77.439354,105.531853 72.992844,104.022614 68.937416,103.578041 
	C60.541008,102.657616 52.019497,102.942596 43.583755,102.288864 
	C39.557423,101.976852 36.448395,99.051407 36.411240,95.136688 
	C36.381916,92.046921 37.664558,88.118736 39.805004,86.062103 
	C42.032436,83.921898 45.953190,82.742844 49.194721,82.607315 
	C59.504761,82.176254 69.845581,82.524712 80.167786,82.283936 
	C81.392487,82.255371 82.575638,80.445320 83.778053,79.461067 
	C82.633354,78.555618 81.492310,76.870834 80.343399,76.865456 
	C69.028145,76.812515 57.682293,76.586555 46.403915,77.317238 
	C35.891296,77.998306 30.157248,85.203979 30.790098,95.376373 
	C31.273125,103.140488 38.146095,108.429169 47.962494,108.511574 
	C54.625034,108.567505 61.296703,108.330498 67.948524,108.605598 
	C72.868607,108.809082 77.655441,109.812439 79.791420,116.156120 
z"/>
<path fill="#252326" opacity="1.000000" stroke="none" 
	d="
M165.721649,70.222458 
	C167.381439,70.122719 169.082779,70.224373 170.694580,69.891922 
	C185.962082,66.742867 193.545609,75.705742 199.300705,87.784615 
	C200.354889,89.997162 201.939728,91.978806 203.419937,93.962326 
	C207.823929,99.863808 212.297836,105.713135 217.659531,112.790794 
	C217.844299,109.610130 218.026276,107.879730 218.031998,106.148750 
	C218.066147,95.829956 218.132492,85.510284 218.028809,75.192513 
	C217.990372,71.366325 219.542374,69.731590 223.389725,69.890686 
	C227.035889,70.041473 230.695633,69.863525 234.636230,70.391487 
	C234.964859,94.958977 235.006638,118.965134 235.048416,142.971283 
	C229.231644,143.003754 223.414886,143.035126 217.598114,143.069107 
	C214.203857,143.088928 212.206223,141.807800 210.210373,138.583313 
	C205.373489,130.768921 199.551575,123.567284 194.188507,116.074425 
	C190.834442,111.388412 187.592758,106.621964 184.099243,101.246521 
	C183.438843,99.396301 182.979828,98.191170 182.520828,96.986046 
	C182.038742,97.088867 181.556641,97.191681 181.074554,97.294502 
	C181.074554,98.865486 181.074493,100.436462 181.074570,102.007446 
	C181.075104,113.490555 181.119492,124.973976 181.036789,136.456482 
	C181.021515,138.577103 180.492661,140.694016 180.200867,142.812637 
	C175.705200,142.828690 171.209518,142.844757 166.203384,142.561325 
	C165.729141,141.897400 165.765366,141.532944 165.980438,140.778809 
	C166.445221,138.602112 166.974289,136.815872 166.979736,135.028030 
	C167.039093,115.597557 167.047958,96.166702 166.967087,76.736389 
	C166.959015,74.800323 166.268417,72.867104 165.814880,70.763924 
	C165.735168,70.595284 165.721649,70.222458 165.721649,70.222458 
M230.225037,99.500107 
	C230.209305,93.172234 230.355316,86.836250 230.038452,80.523491 
	C229.976685,79.292908 228.116287,78.152603 227.085495,76.970657 
	C226.188538,78.114693 224.936935,79.137398 224.492554,80.436272 
	C224.031326,81.784355 224.333603,83.399727 224.332642,84.898232 
	C224.324219,97.887703 224.389267,110.877937 224.239853,123.865730 
	C224.219849,125.604004 223.126099,127.329918 222.529587,129.061554 
	C220.994217,128.023621 218.998199,127.311485 217.996918,125.895805 
	C210.508759,115.308350 203.223892,104.577240 195.861008,93.901001 
	C192.651566,89.247299 189.425995,84.604500 186.175949,79.979095 
	C182.835403,75.224884 177.772888,76.167923 173.439713,77.155846 
	C172.146896,77.450607 171.203094,82.012939 171.167465,84.634499 
	C170.959229,99.952568 171.053207,115.274986 171.086838,130.595856 
	C171.091782,132.845261 170.552475,135.594330 174.280991,135.477600 
	C177.686371,135.370956 177.094528,132.798508 177.100647,130.744904 
	C177.143295,116.423279 177.080704,102.101097 177.199173,87.780296 
	C177.212723,86.143250 178.137711,84.513741 178.640091,82.880737 
	C180.202820,83.842575 182.256653,84.450150 183.247833,85.824257 
	C189.276627,94.182281 195.052795,102.722244 200.934418,111.186783 
	C205.962845,118.423409 210.982391,125.666702 216.077499,132.856277 
	C219.247314,137.329117 223.994186,135.656174 228.008026,135.068359 
	C229.046234,134.916290 230.065384,130.796860 230.125153,128.474899 
	C230.365112,119.155281 230.224930,109.825874 230.225037,99.500107 
z"/>
<path fill="#252327" opacity="1.000000" stroke="none" 
	d="
M158.930710,69.989319 
	C159.289780,75.644699 159.648849,81.300087 159.567551,87.500153 
	C153.079132,88.084763 147.031006,88.117195 140.983047,88.168922 
	C139.032974,88.185600 136.794998,87.850182 136.987305,91.444443 
	C136.948090,108.939941 136.973679,125.968979 136.999268,142.998016 
	C131.309647,143.017639 125.620056,143.037277 119.534775,142.783112 
	C119.043297,142.190933 118.947502,141.872574 118.700951,141.056213 
	C118.003815,140.636032 117.457420,140.713806 116.911034,140.791580 
	C116.853134,124.630165 116.795242,108.468758 117.181496,92.242813 
	C120.346191,89.263145 118.775604,88.358940 115.742340,88.270645 
	C109.136871,88.078369 102.529701,87.944489 95.923233,87.786743 
	C95.925186,82.152748 95.927139,76.518761 96.447449,70.469818 
	C117.620766,70.033020 138.275742,70.011169 158.930710,69.989319 
M148.210342,76.742905 
	C134.559402,76.747581 120.907059,76.665550 107.259705,76.888878 
	C105.869827,76.911613 104.509972,78.769272 103.136177,79.775436 
	C104.482796,80.623833 105.779091,82.089615 107.185532,82.204269 
	C111.320763,82.541389 115.512825,82.552467 119.657883,82.294098 
	C123.837563,82.033569 125.108307,83.703827 125.053062,87.787827 
	C124.861656,101.935631 124.955055,116.087807 125.017815,130.237976 
	C125.027412,132.401611 124.293213,135.336349 128.030975,135.291901 
	C131.764542,135.247543 130.943298,132.291077 130.953812,130.152191 
	C131.023453,116.002083 131.124344,101.849579 130.917191,87.702225 
	C130.855927,83.517929 132.301315,82.048218 136.388016,82.293343 
	C140.534302,82.542053 144.725952,82.542732 148.860138,82.199303 
	C150.245346,82.084236 151.514862,80.576332 152.837250,79.705093 
	C151.601913,78.725105 150.366592,77.745117 148.210342,76.742905 
z"/>
<path fill="#3559B5" opacity="1.000000" stroke="none" 
	d="
M119.259804,32.896988 
	C106.176224,33.728455 94.819229,39.038631 83.706146,46.685997 
	C78.360649,51.483940 73.531876,55.960930 68.810928,60.548866 
	C68.436050,60.913177 68.808144,62.046101 68.833099,62.821831 
	C66.165466,65.241043 63.492748,67.638321 59.563438,65.069962 
	C59.968845,57.588337 65.802376,53.713306 70.072929,49.015430 
	C81.970078,35.927826 97.468086,29.087879 114.486084,26.454678 
	C126.419304,24.608244 138.731583,24.720875 150.479736,28.794601 
	C156.472672,30.872677 162.312500,33.392284 168.718628,36.099590 
	C169.506912,36.656479 169.798096,36.826096 170.089279,36.995712 
	C170.089279,36.995716 169.992920,37.011673 170.175720,37.162563 
	C170.643143,37.547066 170.927795,37.780678 171.212433,38.014290 
	C171.212433,38.014290 171.512680,38.035564 171.846634,38.268742 
	C172.478500,38.667969 172.776398,38.834019 173.074310,39.000069 
	C173.074310,39.000069 172.989929,39.014881 173.175140,39.171059 
	C173.648026,39.558697 173.935684,39.790157 174.223358,40.021618 
	C174.223358,40.021618 174.506683,40.035648 174.835754,40.268620 
	C175.467987,40.668404 175.771149,40.835217 176.074295,41.002033 
	C176.074295,41.002033 175.989655,41.014385 176.156006,41.164810 
	C176.573883,41.550816 176.825409,41.786400 177.076950,42.021980 
	C177.076950,42.021980 176.976440,42.025234 177.167877,42.175484 
	C177.649384,42.558266 177.939453,42.790806 178.229507,43.023346 
	C178.229507,43.023346 178.509796,43.035988 178.836945,43.268707 
	C179.467682,43.666683 179.771255,43.831932 180.074829,43.997185 
	C180.074829,43.997185 179.995895,44.005569 180.148376,44.171318 
	C180.559494,44.562912 180.818115,44.788761 181.076736,45.014610 
	C181.076736,45.014610 180.983490,45.017548 181.149292,45.168232 
	C181.567719,45.553112 181.820358,45.787308 182.072983,46.021503 
	C182.072983,46.021503 181.978256,46.021908 182.147156,46.170868 
	C182.570343,46.553139 182.824615,46.786449 183.078903,47.019760 
	C183.078903,47.019760 182.982010,47.017960 183.143356,47.173885 
	C183.564728,47.557549 183.824768,47.785286 184.084793,48.013023 
	C184.084793,48.013023 183.986649,48.013523 184.146454,48.169693 
	C184.565750,48.555035 184.825241,48.784214 185.084747,49.013393 
	C185.084747,49.013393 184.986435,49.013645 185.146332,49.169746 
	C185.565750,49.555016 185.825272,49.784184 186.084793,50.013351 
	C186.084793,50.013355 185.986588,50.013420 186.145660,50.169830 
	C186.563477,50.555538 186.822205,50.784836 187.080933,51.014137 
	C187.080933,51.014137 186.984985,51.014584 187.145844,51.170341 
	C187.564957,51.555737 187.823212,51.785374 188.081451,52.015011 
	C188.081451,52.015011 187.985535,52.015064 188.145386,52.171997 
	C188.565140,52.556950 188.825012,52.784977 189.084885,53.013000 
	C189.084885,53.013004 188.986938,53.013069 189.144989,53.169846 
	C189.560577,53.556313 189.818146,53.786007 190.075699,54.015697 
	C190.075699,54.015697 189.998703,54.000713 190.091949,54.246719 
	C190.473511,55.011719 190.761795,55.530708 191.050095,56.049694 
	C191.050095,56.049694 190.945724,56.028629 191.131378,56.168388 
	C191.568024,56.546715 191.819031,56.785286 192.070038,57.023857 
	C192.070038,57.023861 191.976898,57.023178 192.146332,57.172081 
	C192.569901,57.553135 192.824036,57.785282 193.078186,58.017429 
	C193.078186,58.017429 193.005127,57.995842 193.062057,58.258331 
	C193.442719,59.021923 193.766449,59.523022 194.090179,60.024120 
	C194.090179,60.024120 194.006531,59.997524 194.071182,60.277443 
	C195.038956,61.656898 195.942093,62.756432 196.845215,63.855968 
	C195.487061,67.227661 193.069702,66.087494 190.247437,64.864380 
	C186.794373,61.325695 183.826874,58.213512 180.859375,55.101330 
	C180.859375,55.101330 180.920792,55.084667 181.091461,54.772568 
	C179.792786,53.336288 178.323441,52.212105 176.854095,51.087925 
	C176.854095,51.087929 176.918091,51.080254 177.086914,50.772285 
	C175.123581,49.007458 172.991409,47.550598 170.859253,46.093742 
	C170.859253,46.093742 170.929260,46.090511 171.014191,45.844643 
	C170.782196,45.395351 170.465286,45.191921 170.148376,44.988495 
	C160.324417,38.543919 149.893906,33.719116 137.305847,32.529770 
	C132.032242,31.725132 127.409019,31.175966 122.772812,31.024494 
	C121.623428,30.986942 120.431938,32.238171 119.259804,32.896988 
z"/>
<path fill="#3257B4" opacity="1.000000" stroke="none" 
	d="
M178.696411,168.826782 
	C178.696411,168.826782 178.511124,168.953461 178.093033,169.070099 
	C177.119110,169.816818 176.563293,170.446930 176.007462,171.077026 
	C176.007462,171.077026 176.003601,171.006699 175.797440,171.108109 
	C175.303253,171.410278 175.015228,171.611038 174.727188,171.811783 
	C174.727188,171.811783 174.505341,171.943008 174.141785,172.111786 
	C173.513580,172.548569 173.248947,172.816559 172.984314,173.084549 
	C172.984314,173.084549 172.996552,172.994751 172.806381,173.108658 
	C172.332230,173.420334 172.048248,173.618103 171.764267,173.815857 
	C171.764267,173.815872 171.506317,173.937958 171.140900,174.118576 
	C170.509674,174.559113 170.243866,174.819031 169.978058,175.078964 
	C169.978058,175.078964 169.993332,174.990082 169.796921,175.102264 
	C169.313797,175.417236 169.027084,175.620026 168.740356,175.822815 
	C168.740356,175.822815 168.503204,175.944031 168.114960,176.068344 
	C167.408951,176.394241 167.091202,176.595825 166.773453,176.797394 
	C159.192429,179.557022 151.797699,183.145294 143.990845,184.900406 
	C128.659271,188.347214 113.379425,187.496613 98.106194,180.832001 
	C96.913490,180.293335 96.312920,180.112747 95.712349,179.932159 
	C95.712349,179.932175 95.463242,179.954407 95.123444,179.725861 
	C94.451424,179.318634 94.119194,179.139984 93.786972,178.961319 
	C93.786972,178.961319 93.497002,178.947662 93.133865,178.715286 
	C92.432770,178.308548 92.094818,178.134186 91.756866,177.959808 
	C91.756866,177.959808 91.501808,177.967941 91.157028,177.719604 
	C90.457947,177.295700 90.103653,177.120117 89.749352,176.944550 
	C89.749352,176.944550 89.506432,176.943176 89.161827,176.697937 
	C88.455170,176.283875 88.093124,176.115021 87.731071,175.946182 
	C87.731071,175.946182 87.480499,175.958420 87.163376,175.728455 
	C86.535294,175.333405 86.224327,175.168320 85.913368,175.003220 
	C85.913368,175.003220 86.009537,174.985214 85.823196,174.830414 
	C85.344505,174.439224 85.052155,174.202835 84.759804,173.966461 
	C84.759804,173.966461 84.500961,173.950638 84.178253,173.719635 
	C83.542747,173.326553 83.229942,173.164459 82.917145,173.002380 
	C82.917145,173.002380 83.009933,172.983627 82.818604,172.827698 
	C82.327103,172.437668 82.026924,172.203598 81.726753,171.969513 
	C81.726753,171.969513 81.486832,171.974594 81.174988,171.739166 
	C80.548080,171.337097 80.233009,171.170456 79.917938,171.003815 
	C79.917938,171.003815 80.001884,170.997726 79.861984,170.821075 
	C79.451996,170.427780 79.181908,170.211136 78.911812,169.994492 
	C78.911812,169.994492 79.007492,169.991013 78.855713,169.828583 
	C78.443886,169.437820 78.183830,169.209473 77.923782,168.981140 
	C77.923782,168.981140 78.029457,168.962280 77.786148,168.851746 
	C77.002510,168.502762 76.462196,168.264313 75.921875,168.025864 
	C75.921875,168.025864 75.993141,168.008560 75.847725,167.834961 
	C75.440384,167.436249 75.178467,167.211121 74.916550,166.985992 
	C74.916550,166.985992 75.015022,166.985336 74.858154,166.826996 
	C74.441002,166.440323 74.180725,166.211990 73.920448,165.983658 
	C73.920448,165.983658 74.016380,165.983643 73.859329,165.824463 
	C73.441689,165.438171 73.181099,165.211060 72.920509,164.983963 
	C72.920509,164.983963 73.016312,164.983536 72.858490,164.824570 
	C72.439262,164.438614 72.177856,164.211639 71.916451,163.984650 
	C71.916451,163.984650 72.014839,163.984543 71.858727,163.825043 
	C71.439537,163.440063 71.176460,163.214600 70.913383,162.989136 
	C70.913383,162.989136 71.009232,162.992157 70.865288,162.820953 
	C70.452904,162.430740 70.184471,162.211716 69.916031,161.992706 
	C69.916031,161.992706 70.009972,161.989044 69.854324,161.828598 
	C69.437973,161.440140 69.177269,161.212143 68.916573,160.984131 
	C68.916573,160.984131 69.015244,160.984207 68.858780,160.825073 
	C68.439453,160.440231 68.176605,160.214508 67.913757,159.988785 
	C67.913757,159.988785 68.009712,159.991684 67.864960,159.821228 
	C67.451256,159.432663 67.182297,159.214554 66.913338,158.996445 
	C66.913338,158.996445 67.003670,158.996353 66.861771,158.822906 
	C66.451576,158.431778 66.183281,158.214111 65.914993,157.996429 
	C65.914993,157.996429 65.993629,158.005310 65.897949,157.787720 
	C65.589836,157.274323 65.377403,156.978500 65.164970,156.682693 
	C65.164970,156.682693 65.031448,156.473816 64.848549,156.138412 
	C64.417610,155.524200 64.169571,155.245392 63.921528,154.966583 
	C63.921528,154.966583 64.027840,154.976547 63.862526,154.823578 
	C63.435852,154.441803 63.174492,154.212997 62.913128,153.984177 
	C62.913128,153.984177 62.998528,154.001419 62.910904,153.755249 
	C62.529388,152.989120 62.235500,152.469162 61.941612,151.949219 
	C61.941616,151.949219 62.051384,151.950851 61.880287,151.901352 
	C61.515568,151.670334 61.335869,151.475937 61.170097,151.268661 
	C60.746552,150.135559 60.323009,149.002457 59.695789,147.324478 
	C61.534061,147.211395 62.880062,147.128601 64.800537,147.404419 
	C67.700264,149.723587 67.315147,154.667526 72.123962,153.894318 
	C72.123962,153.894318 72.060303,153.907776 71.998795,154.230743 
	C72.343903,154.682159 72.750511,154.810623 73.157127,154.939072 
	C73.157127,154.939072 73.060684,154.939117 72.998703,155.244888 
	C73.343697,155.681107 73.750671,155.811569 74.157639,155.942017 
	C74.157639,155.942017 74.057747,155.942062 74.001755,156.245453 
	C74.349716,156.679886 74.753662,156.810928 75.157600,156.941986 
	C75.157600,156.941986 75.057739,156.942047 75.001740,157.245499 
	C75.349693,157.679932 75.753639,157.810928 76.157585,157.941925 
	C76.157585,157.941925 76.057907,157.941940 76.001221,158.246628 
	C76.348351,158.681549 76.752174,158.811783 77.155998,158.942017 
	C77.155998,158.942001 77.056801,158.941833 77.001419,159.243912 
	C77.349243,159.679825 77.752457,159.813675 78.155663,159.947525 
	C78.155663,159.947525 78.052391,159.947510 78.002365,160.247040 
	C78.353386,160.680145 78.754440,160.813721 79.155487,160.947296 
	C79.155487,160.947311 79.052330,160.947388 79.002548,161.247314 
	C79.354134,161.679855 79.755501,161.812485 80.156868,161.945114 
	C80.156868,161.945114 80.055481,161.945374 79.999969,162.248260 
	C80.348587,162.682175 80.752716,162.813202 81.156853,162.944229 
	C81.156853,162.944229 81.054291,162.944443 81.004700,163.238831 
	C81.352982,163.677292 81.750854,163.821350 82.148727,163.965424 
	C82.148727,163.965424 82.022507,163.964035 82.034622,164.280151 
	C83.074875,165.029556 84.103004,165.462845 85.131126,165.896133 
	C85.131126,165.896133 85.040161,165.910294 85.069351,166.234528 
	C85.554977,166.733551 86.011406,166.908325 86.467834,167.083099 
	C86.467834,167.083099 86.511063,167.030762 86.720932,167.314087 
	C87.334816,167.729858 87.738831,167.862289 88.142845,167.994705 
	C88.142845,167.994705 88.005470,168.009415 88.058159,168.298920 
	C88.559891,168.751663 89.008942,168.914902 89.457985,169.078140 
	C89.457985,169.078140 89.502045,169.034592 89.739365,169.281891 
	C90.366226,169.697403 90.755768,169.865646 91.145309,170.033875 
	C91.145309,170.033875 91.002647,170.031967 91.011574,170.270432 
	C91.380325,170.672684 91.740150,170.836472 92.099976,171.000275 
	C92.099976,171.000275 92.093185,171.187286 92.273361,170.910263 
	C92.597534,171.033188 92.741547,171.433136 92.885559,171.833099 
	C100.360825,174.553925 107.660225,178.111389 115.366905,179.731506 
	C121.559265,181.033295 128.278000,180.401779 134.703888,179.887482 
	C144.163513,179.130386 153.518433,177.442307 161.658112,172.043640 
	C166.140472,169.070709 170.421768,165.794617 175.339111,162.320221 
	C176.234787,161.292389 176.585083,160.599533 176.935394,159.906662 
	C176.935379,159.906662 176.971573,159.970291 177.250824,160.193481 
	C180.312546,157.586441 183.095001,154.756226 185.877457,151.926010 
	C187.298248,149.366150 188.442719,146.316635 192.257202,147.077499 
	C193.531647,147.331711 195.560455,148.132950 195.671387,148.909027 
	C195.852264,150.174179 194.921585,151.741669 194.125519,152.963745 
	C193.284943,154.254181 192.052902,155.289627 190.609558,156.886993 
	C186.823029,160.919235 183.418823,164.500916 180.014618,168.082596 
	C180.014618,168.082596 180.003967,168.011017 179.793655,168.112732 
	C179.287704,168.418549 178.992050,168.622665 178.696411,168.826782 
z"/>
<path fill="#878484" opacity="1.000000" stroke="none" 
	d="
M165.313416,70.212112 
	C165.721649,70.222458 165.735168,70.595284 165.699173,71.225395 
	C165.709320,94.959839 165.755447,118.064171 165.801590,141.168503 
	C165.765366,141.532944 165.729141,141.897400 165.721863,142.537994 
	C165.169281,142.081879 164.082230,141.351425 164.079559,140.617035 
	C163.996017,117.663315 164.012390,94.709198 164.060928,71.755249 
	C164.062027,71.236824 164.611496,70.719559 165.313416,70.212112 
z"/>
<path fill="#949393" opacity="1.000000" stroke="none" 
	d="
M235.473450,142.947922 
	C235.006638,118.965134 234.964859,94.958977 234.982941,70.489166 
	C235.680847,70.914238 236.872330,71.800644 236.876068,72.692024 
	C236.971497,95.442284 236.951416,118.193077 236.892075,140.943634 
	C236.890350,141.604797 236.244171,142.264282 235.473450,142.947922 
z"/>
<path fill="#6D6C6C" opacity="1.000000" stroke="none" 
	d="
M46.557804,89.828598 
	C48.075684,89.255348 50.048237,88.255707 52.034927,88.226768 
	C62.972610,88.067436 73.916336,88.007683 84.852371,88.212975 
	C88.946053,88.289825 90.552315,86.908081 90.250313,82.784912 
	C89.960373,78.826355 90.117599,74.835037 90.032143,70.386200 
	C90.677483,70.780006 91.938858,71.627174 91.967728,72.514450 
	C92.150536,78.131592 92.060524,83.757607 92.060524,89.850311 
	C76.809616,89.850311 61.914310,89.850311 46.557804,89.828598 
z"/>
<path fill="#7E7E7E" opacity="1.000000" stroke="none" 
	d="
M70.044769,124.030853 
	C58.806877,124.214218 47.568989,124.397583 36.331097,124.580948 
	C33.519302,124.626831 30.707510,124.672714 27.474434,124.624794 
	C27.041908,124.364014 27.030666,124.197037 27.019424,124.030052 
	C28.735744,123.685684 30.449514,123.057854 32.168793,123.042381 
	C44.463722,122.931770 56.759766,122.945877 69.553474,123.169228 
	C70.049248,123.622368 70.047005,123.826614 70.044769,124.030853 
z"/>
<path fill="#7F7F7F" opacity="1.000000" stroke="none" 
	d="
M158.719421,69.614548 
	C138.275742,70.011169 117.620766,70.033020 96.502365,70.001556 
	C96.732071,69.636719 97.425560,69.052422 98.118286,69.053322 
	C118.248283,69.079636 138.378189,69.164406 158.719421,69.614548 
z"/>
<path fill="#565656" opacity="1.000000" stroke="none" 
	d="
M180.593658,142.765564 
	C180.492661,140.694016 181.021515,138.577103 181.036789,136.456482 
	C181.119492,124.973976 181.075104,113.490555 181.074570,102.007446 
	C181.074493,100.436462 181.074554,98.865486 181.074554,97.294502 
	C181.556641,97.191681 182.038742,97.088867 182.520828,96.986046 
	C182.979828,98.191170 183.438843,99.396301 183.954224,100.958969 
	C183.340088,102.659325 182.108154,103.993736 182.087952,105.346260 
	C181.927155,116.106819 182.040070,126.871193 181.949951,137.633392 
	C181.935730,139.330994 181.322662,141.023575 180.593658,142.765564 
z"/>
<path fill="#5A5A5A" opacity="1.000000" stroke="none" 
	d="
M137.345566,142.744278 
	C136.973679,125.968979 136.948090,108.939941 137.177155,91.436127 
	C137.431793,90.961357 137.811996,90.962631 137.811981,90.962631 
	C137.771942,108.138603 137.731903,125.314568 137.345566,142.744278 
z"/>
<path fill="#3D393B" opacity="1.000000" stroke="none" 
	d="
M28.698811,142.833771 
	C34.002907,142.562958 39.753937,142.286865 45.507572,142.085190 
	C55.552570,141.733109 65.599167,141.426804 76.106804,141.059113 
	C75.012802,141.658768 73.461586,142.844711 71.900681,142.857590 
	C57.650387,142.975266 43.398407,142.888824 28.698811,142.833771 
z"/>
<path fill="#6C6B6B" opacity="1.000000" stroke="none" 
	d="
M138.104126,90.636642 
	C137.811996,90.962631 137.431793,90.961357 137.241943,90.969666 
	C136.794998,87.850182 139.032974,88.185600 140.983047,88.168922 
	C147.031006,88.117195 153.079132,88.084763 159.593155,87.959351 
	C161.694763,91.053909 158.894287,89.991348 157.802902,90.022293 
	C151.336487,90.205597 144.865631,90.231697 138.104126,90.636642 
z"/>
<path fill="#7D7C7C" opacity="1.000000" stroke="none" 
	d="
M95.704292,88.063988 
	C102.529701,87.944489 109.136871,88.078369 115.742340,88.270645 
	C118.775604,88.358940 120.346191,89.263145 117.282417,91.814026 
	C115.567940,90.970665 114.211182,90.134880 112.822754,90.078453 
	C108.419792,89.899506 103.998810,90.142578 99.598427,89.934372 
	C98.205399,89.868462 96.855171,88.897835 95.704292,88.063988 
z"/>
<path fill="#7F7F7F" opacity="1.000000" stroke="none" 
	d="
M89.834740,69.648041 
	C74.370590,70.032166 58.665459,70.051086 42.497078,70.011665 
	C42.554283,69.647667 43.075329,69.074150 43.595097,69.075310 
	C58.928059,69.109444 74.260895,69.200684 89.834740,69.648041 
z"/>
<path fill="#99A2B8" opacity="1.000000" stroke="none" 
	d="
M69.188309,62.813324 
	C68.808144,62.046101 68.436050,60.913177 68.810928,60.548866 
	C73.531876,55.960930 78.360649,51.483940 83.521530,46.981045 
	C80.168144,50.845490 76.417908,54.672787 72.763161,58.589199 
	C71.562668,59.875633 70.609680,61.393036 69.188309,62.813324 
z"/>
<path fill="#4F4E4E" opacity="1.000000" stroke="none" 
	d="
M70.357475,123.831245 
	C70.047005,123.826614 70.049248,123.622368 70.018349,123.113525 
	C71.066284,118.687553 68.960777,116.129890 63.958218,115.975395 
	C56.194794,115.735619 48.424217,115.727348 40.377548,115.312996 
	C40.530270,115.001770 40.962109,114.998489 42.181091,115.023331 
	C51.265530,114.986023 59.562828,114.920593 67.860123,114.855164 
	C72.116661,116.717705 73.514091,119.495674 70.357475,123.831245 
z"/>
<path fill="#3D393B" opacity="1.000000" stroke="none" 
	d="
M78.383041,142.026199 
	C78.663620,141.301620 79.278023,140.542755 80.004807,139.913727 
	C84.061157,136.402985 88.144707,132.923660 92.495987,129.288284 
	C90.990875,136.576782 86.401093,140.964691 78.383041,142.026199 
z"/>
<path fill="#808DAD" opacity="1.000000" stroke="none" 
	d="
M119.702332,32.955074 
	C120.431938,32.238171 121.623428,30.986942 122.772812,31.024494 
	C127.409019,31.175966 132.032242,31.725132 136.883270,32.448528 
	C131.452484,32.850800 125.798668,32.931976 119.702332,32.955074 
z"/>
<path fill="#5B74B1" opacity="1.000000" stroke="none" 
	d="
M180.365509,168.041229 
	C183.418823,164.500916 186.823029,160.919235 190.541504,157.253540 
	C187.475983,160.779648 184.096191,164.389755 180.365509,168.041229 
z"/>
<path fill="#ABB7D4" opacity="1.000000" stroke="none" 
	d="
M180.907700,55.450691 
	C183.826874,58.213512 186.794373,61.325695 189.887238,64.767838 
	C186.993744,61.998543 183.974884,58.899296 180.907700,55.450691 
z"/>
<path fill="#A9B2C9" opacity="1.000000" stroke="none" 
	d="
M185.534805,151.962845 
	C183.095001,154.756226 180.312546,157.586441 177.219177,160.175079 
	C179.669571,157.288910 182.430862,154.644302 185.534805,151.962845 
z"/>
<path fill="#5D5A5B" opacity="1.000000" stroke="none" 
	d="
M26.630501,124.225677 
	C27.030666,124.197037 27.041908,124.364014 27.028152,124.780754 
	C27.011082,130.703384 27.019012,136.376266 27.004158,142.515289 
	C26.734774,136.794739 26.488176,130.608017 26.630501,124.225677 
z"/>
<path fill="#9DABD0" opacity="1.000000" stroke="none" 
	d="
M71.988739,153.583527 
	C67.315147,154.667526 67.700264,149.723587 65.206284,147.472366 
	C67.309540,149.212051 69.581528,151.242386 71.988739,153.583527 
z"/>
<path fill="#ABB7D4" opacity="1.000000" stroke="none" 
	d="
M170.997269,46.400612 
	C172.991409,47.550598 175.123581,49.007458 177.082840,50.804253 
	C174.985062,49.665287 173.060165,48.186390 170.997269,46.400612 
z"/>
<path fill="#5D5A5B" opacity="1.000000" stroke="none" 
	d="
M93.357971,125.944504 
	C93.156090,122.403572 93.314812,118.616547 93.685928,114.490967 
	C93.838409,118.001076 93.778496,121.849747 93.357971,125.944504 
z"/>
<path fill="#ABB7D4" opacity="1.000000" stroke="none" 
	d="
M176.907043,51.435341 
	C178.323441,52.212105 179.792786,53.336288 181.083878,54.803467 
	C179.590408,54.025227 178.275208,52.903992 176.907043,51.435341 
z"/>
<path fill="#5B74B5" opacity="1.000000" stroke="none" 
	d="
M196.777328,63.549644 
	C195.942093,62.756432 195.038956,61.656898 194.084503,60.235626 
	C194.925262,61.023693 195.817352,62.133503 196.777328,63.549644 
z"/>
<path fill="#9DABD0" opacity="1.000000" stroke="none" 
	d="
M85.008072,165.590668 
	C84.103004,165.462845 83.074875,165.029556 82.035339,164.217041 
	C82.977623,164.320267 83.931320,164.802734 85.008072,165.590668 
z"/>
<path fill="#5B74B1" opacity="1.000000" stroke="none" 
	d="
M176.362579,171.033691 
	C176.563293,170.446930 177.119110,169.816818 177.980988,169.064026 
	C177.763901,169.624359 177.240784,170.307373 176.362579,171.033691 
z"/>
<path fill="#6D6C6C" opacity="1.000000" stroke="none" 
	d="
M45.103020,91.654907 
	C45.209831,91.360214 45.509239,90.907547 45.806496,90.279129 
	C45.634766,90.567894 45.465191,91.032410 45.103020,91.654907 
z"/>
<path fill="#A9B2C9" opacity="1.000000" stroke="none" 
	d="
M176.657837,160.032776 
	C176.585083,160.599533 176.234787,161.292389 175.516006,162.025482 
	C175.558441,161.430115 175.969360,160.794495 176.657837,160.032776 
z"/>
<path fill="#5B74B5" opacity="1.000000" stroke="none" 
	d="
M194.060150,59.700119 
	C193.766449,59.523022 193.442719,59.021923 193.072861,58.221817 
	C193.361206,58.407246 193.695679,58.891682 194.060150,59.700119 
z"/>
<path fill="#5C76B5" opacity="1.000000" stroke="none" 
	d="
M95.894302,180.233994 
	C96.312920,180.112747 96.913490,180.293335 97.789917,180.628494 
	C97.402611,180.700653 96.739441,180.618240 95.894302,180.233994 
z"/>
<path fill="#5C76B5" opacity="1.000000" stroke="none" 
	d="
M76.058151,168.318726 
	C76.462196,168.264313 77.002510,168.502762 77.795593,168.904572 
	C77.430374,168.915817 76.812401,168.763702 76.058151,168.318726 
z"/>
<path fill="#5C76B5" opacity="1.000000" stroke="none" 
	d="
M61.983704,152.272171 
	C62.235500,152.469162 62.529388,152.989120 62.902264,153.797943 
	C62.662766,153.589584 62.344276,153.092361 61.983704,152.272171 
z"/>
<path fill="#9E9E9E" opacity="1.000000" stroke="none" 
	d="
M116.951584,141.123535 
	C117.457420,140.713806 118.003815,140.636032 118.482605,141.392517 
	C118.265221,142.447906 118.115440,142.669006 117.965660,142.890091 
	C117.641151,142.411896 117.316650,141.933701 116.951584,141.123535 
z"/>
<path fill="#5B74B5" opacity="1.000000" stroke="none" 
	d="
M191.001938,55.732292 
	C190.761795,55.530708 190.473511,55.011719 190.099426,54.208218 
	C190.327026,54.420769 190.640411,54.917831 191.001938,55.732292 
z"/>
<path fill="#5C76B5" opacity="1.000000" stroke="none" 
	d="
M74.993645,167.256836 
	C75.178467,167.211121 75.440384,167.436249 75.856361,167.870605 
	C75.697189,167.895782 75.383965,167.711716 74.993645,167.256836 
z"/>
<path fill="#5C76B5" opacity="1.000000" stroke="none" 
	d="
M78.989227,170.265015 
	C79.181908,170.211136 79.451996,170.427780 79.865059,170.863037 
	C79.694229,170.899628 79.380432,170.717575 78.989227,170.265015 
z"/>
<path fill="#5B74B5" opacity="1.000000" stroke="none" 
	d="
M191.982880,56.758003 
	C191.819031,56.785286 191.568024,56.546715 191.141876,56.116188 
	C191.276398,56.113537 191.586060,56.302845 191.982880,56.758003 
z"/>
<path fill="#9DABD0" opacity="1.000000" stroke="none" 
	d="
M90.960526,169.752136 
	C90.755768,169.865646 90.366226,169.697403 89.738747,169.312866 
	C89.925789,169.221161 90.350769,169.345779 90.960526,169.752136 
z"/>
<path fill="#5C76B5" opacity="1.000000" stroke="none" 
	d="
M77.997375,169.253876 
	C78.183830,169.209473 78.443886,169.437820 78.857468,169.876434 
	C78.697655,169.899994 78.384308,169.713303 77.997375,169.253876 
z"/>
<path fill="#5B74B1" opacity="1.000000" stroke="none" 
	d="
M179.000885,168.844940 
	C178.992050,168.622665 179.287704,168.418549 179.829437,168.107437 
	C179.818817,168.287994 179.562103,168.575546 179.000885,168.844940 
z"/>
<path fill="#9DABD0" opacity="1.000000" stroke="none" 
	d="
M89.255325,168.820801 
	C89.008942,168.914902 88.559891,168.751663 88.050781,168.230240 
	C88.344704,168.102524 88.698685,168.332993 89.255325,168.820801 
z"/>
<path fill="#9DABD0" opacity="1.000000" stroke="none" 
	d="
M87.961525,167.712280 
	C87.738831,167.862289 87.334816,167.729858 86.715149,167.347565 
	C86.926384,167.208435 87.353294,167.319138 87.961525,167.712280 
z"/>
<path fill="#9DABD0" opacity="1.000000" stroke="none" 
	d="
M92.023392,170.727112 
	C91.740150,170.836472 91.380325,170.672684 91.012512,170.199097 
	C91.318619,170.077515 91.632713,170.265732 92.023392,170.727112 
z"/>
<path fill="#9DABD0" opacity="1.000000" stroke="none" 
	d="
M86.263748,166.826828 
	C86.011406,166.908325 85.554977,166.733551 85.062286,166.189056 
	C85.370575,166.069733 85.715126,166.320129 86.263748,166.826828 
z"/>
<path fill="#5C76B5" opacity="1.000000" stroke="none" 
	d="
M74.002968,166.251343 
	C74.180725,166.211990 74.441002,166.440323 74.858498,166.876221 
	C74.705635,166.895538 74.395561,166.707275 74.002968,166.251343 
z"/>
<path fill="#5C76B5" opacity="1.000000" stroke="none" 
	d="
M73.003006,165.251434 
	C73.181099,165.211060 73.441689,165.438171 73.859360,165.872421 
	C73.706123,165.892670 73.395813,165.705795 73.003006,165.251434 
z"/>
<path fill="#5B74B5" opacity="1.000000" stroke="none" 
	d="
M190.001953,53.743164 
	C189.818146,53.786007 189.560577,53.556313 189.144928,53.120872 
	C189.300644,53.100292 189.614426,53.285461 190.001953,53.743164 
z"/>
<path fill="#5C76B5" opacity="1.000000" stroke="none" 
	d="
M72.000603,164.251801 
	C72.177856,164.211639 72.439262,164.438614 72.858719,164.872467 
	C72.706108,164.892548 72.395432,164.705750 72.000603,164.251801 
z"/>
<path fill="#9DABD0" opacity="1.000000" stroke="none" 
	d="
M82.057693,163.701508 
	C81.750854,163.821350 81.352982,163.677292 81.004608,163.187546 
	C81.358299,163.040436 81.662483,163.238998 82.057693,163.701508 
z"/>
<path fill="#5C76B5" opacity="1.000000" stroke="none" 
	d="
M70.992683,163.259949 
	C71.176460,163.214600 71.439537,163.440063 71.858795,163.874237 
	C71.700645,163.898880 71.386314,163.714828 70.992683,163.259949 
z"/>
<path fill="#9DABD0" opacity="1.000000" stroke="none" 
	d="
M81.062576,162.683716 
	C80.752716,162.813202 80.348587,162.682175 79.999855,162.197571 
	C80.359596,162.037048 80.663940,162.230118 81.062576,162.683716 
z"/>
<path fill="#5B74B1" opacity="1.000000" stroke="none" 
	d="
M170.260910,174.993607 
	C170.243866,174.819031 170.509674,174.559113 170.998566,174.128845 
	C170.995697,174.275085 170.769730,174.591660 170.260910,174.993607 
z"/>
<path fill="#5B74B5" opacity="1.000000" stroke="none" 
	d="
M192.992462,57.751984 
	C192.824036,57.785282 192.569901,57.553135 192.146652,57.125507 
	C192.287292,57.115532 192.597015,57.301037 192.992462,57.751984 
z"/>
<path fill="#5C76B5" opacity="1.000000" stroke="none" 
	d="
M93.935699,179.241638 
	C94.119194,179.139984 94.451424,179.318634 95.013374,179.666519 
	C94.856880,179.731140 94.470650,179.626541 93.935699,179.241638 
z"/>
<path fill="#5C76B5" opacity="1.000000" stroke="none" 
	d="
M91.917847,178.233597 
	C92.094818,178.134186 92.432770,178.308548 93.003799,178.650879 
	C92.850845,178.715027 92.464836,178.611206 91.917847,178.233597 
z"/>
<path fill="#5C76B5" opacity="1.000000" stroke="none" 
	d="
M89.908203,177.235062 
	C90.103653,177.120117 90.457947,177.295700 91.044754,177.658981 
	C90.873856,177.739655 90.470459,177.632614 89.908203,177.235062 
z"/>
<path fill="#5B74B1" opacity="1.000000" stroke="none" 
	d="
M167.089081,176.829193 
	C167.091202,176.595825 167.408951,176.394241 167.981796,176.068909 
	C167.959488,176.250443 167.682114,176.555725 167.089081,176.829193 
z"/>
<path fill="#5C76B5" opacity="1.000000" stroke="none" 
	d="
M87.904938,176.228928 
	C88.093124,176.115021 88.455170,176.283875 89.058624,176.633896 
	C88.892944,176.713943 88.485870,176.612808 87.904938,176.228928 
z"/>
<path fill="#5B74B1" opacity="1.000000" stroke="none" 
	d="
M169.043213,175.856140 
	C169.027084,175.620026 169.313797,175.417236 169.841370,175.109894 
	C169.836838,175.300034 169.591446,175.594757 169.043213,175.856140 
z"/>
<path fill="#5C76B5" opacity="1.000000" stroke="none" 
	d="
M86.023399,175.286621 
	C86.224327,175.168320 86.535294,175.333405 87.053345,175.668243 
	C86.884758,175.748672 86.509094,175.659332 86.023399,175.286621 
z"/>
<path fill="#5C76B5" opacity="1.000000" stroke="none" 
	d="
M69.991577,162.263870 
	C70.184471,162.211716 70.452904,162.430740 70.863800,162.868866 
	C70.693222,162.903687 70.380173,162.719360 69.991577,162.263870 
z"/>
<path fill="#5C76B5" opacity="1.000000" stroke="none" 
	d="
M84.895798,174.231400 
	C85.052155,174.202835 85.344505,174.439224 85.832214,174.878479 
	C85.695633,174.886368 85.363708,174.691360 84.895798,174.231400 
z"/>
<path fill="#5B74B1" opacity="1.000000" stroke="none" 
	d="
M172.063843,173.852966 
	C172.048248,173.618103 172.332230,173.420334 172.851288,173.114746 
	C172.845367,173.301300 172.604401,173.595688 172.063843,173.852966 
z"/>
<path fill="#5C76B5" opacity="1.000000" stroke="none" 
	d="
M83.035477,173.279770 
	C83.229942,173.164459 83.542747,173.326553 84.066788,173.653412 
	C83.903290,173.731171 83.528549,173.644165 83.035477,173.279770 
z"/>
<path fill="#5B74B1" opacity="1.000000" stroke="none" 
	d="
M173.272324,173.002380 
	C173.248947,172.816559 173.513580,172.548569 174.013092,172.118759 
	C174.018768,172.278030 173.789551,172.599106 173.272324,173.002380 
z"/>
<path fill="#5C76B5" opacity="1.000000" stroke="none" 
	d="
M81.873657,172.231781 
	C82.026924,172.203598 82.327103,172.437668 82.828003,172.874084 
	C82.692673,172.882278 82.356613,172.688171 81.873657,172.231781 
z"/>
<path fill="#5B74B1" opacity="1.000000" stroke="none" 
	d="
M175.027634,171.839783 
	C175.015228,171.611038 175.303253,171.410278 175.832611,171.106506 
	C175.825333,171.291580 175.576706,171.579697 175.027634,171.839783 
z"/>
<path fill="#9DABD0" opacity="1.000000" stroke="none" 
	d="
M92.813065,171.609497 
	C92.741547,171.433136 92.597534,171.033188 92.179855,170.906891 
	C92.238091,171.028488 92.516220,171.096939 92.813065,171.609497 
z"/>
<path fill="#5C76B5" opacity="1.000000" stroke="none" 
	d="
M80.036865,171.282440 
	C80.233009,171.170456 80.548080,171.337097 81.073898,171.674530 
	C80.908371,171.750565 80.532082,171.655823 80.036865,171.282440 
z"/>
<path fill="#5B74B5" opacity="1.000000" stroke="none" 
	d="
M176.993774,41.754433 
	C176.825409,41.786400 176.573883,41.550816 176.149811,41.122490 
	C176.288391,41.115459 176.599487,41.301170 176.993774,41.754433 
z"/>
<path fill="#5B74B5" opacity="1.000000" stroke="none" 
	d="
M171.086487,37.749443 
	C170.927795,37.780678 170.643143,37.547066 170.167725,37.114388 
	C170.304810,37.105080 170.632675,37.294842 171.086487,37.749443 
z"/>
<path fill="#5B74B5" opacity="1.000000" stroke="none" 
	d="
M187.998932,51.747265 
	C187.823212,51.785374 187.564957,51.555737 187.145599,51.122364 
	C187.295135,51.105595 187.605789,51.292557 187.998932,51.747265 
z"/>
<path fill="#5C76B5" opacity="1.000000" stroke="none" 
	d="
M61.219063,151.482697 
	C61.335869,151.475937 61.515568,151.670334 61.879478,151.956238 
	C61.734669,152.056259 61.474087,151.934967 61.219063,151.482697 
z"/>
<path fill="#5B74B5" opacity="1.000000" stroke="none" 
	d="
M172.964874,38.729107 
	C172.776398,38.834019 172.478500,38.667969 171.980225,38.338020 
	C172.138382,38.268795 172.496918,38.363468 172.964874,38.729107 
z"/>
<path fill="#5B74B5" opacity="1.000000" stroke="none" 
	d="
M174.090027,39.760956 
	C173.935684,39.790157 173.648026,39.558697 173.167725,39.128868 
	C173.302307,39.120430 173.629501,39.310360 174.090027,39.760956 
z"/>
<path fill="#7D7C7C" opacity="1.000000" stroke="none" 
	d="
M118.218628,142.960800 
	C118.115440,142.669006 118.265221,142.447906 118.633354,141.890503 
	C118.947502,141.872574 119.043297,142.190933 119.067383,142.752426 
	C118.820984,143.007523 118.646286,143.019516 118.218628,142.960800 
z"/>
<path fill="#5B74B5" opacity="1.000000" stroke="none" 
	d="
M187.004944,50.742088 
	C186.822205,50.784836 186.563477,50.555538 186.145630,50.120728 
	C186.300644,50.100155 186.614807,50.285095 187.004944,50.742088 
z"/>
<path fill="#5B74B5" opacity="1.000000" stroke="none" 
	d="
M175.962128,40.728180 
	C175.771149,40.835217 175.467987,40.668404 174.960266,40.336555 
	C175.120453,40.265793 175.485199,40.360062 175.962128,40.728180 
z"/>
<path fill="#5C76B5" opacity="1.000000" stroke="none" 
	d="
M62.988419,154.258972 
	C63.174492,154.212997 63.435852,154.441803 63.857567,154.876740 
	C63.699848,154.899841 63.381775,154.716812 62.988419,154.258972 
z"/>
<path fill="#5B74B5" opacity="1.000000" stroke="none" 
	d="
M178.095520,42.760719 
	C177.939453,42.790806 177.649384,42.558266 177.166245,42.125229 
	C177.302612,42.115849 177.632080,42.306973 178.095520,42.760719 
z"/>
<path fill="#5B74B5" opacity="1.000000" stroke="none" 
	d="
M179.961761,43.724289 
	C179.771255,43.831932 179.467682,43.666683 178.959808,43.336437 
	C179.119904,43.264763 179.484314,43.358078 179.961761,43.724289 
z"/>
<path fill="#5B74B5" opacity="1.000000" stroke="none" 
	d="
M180.998535,44.746063 
	C180.818115,44.788761 180.559494,44.562912 180.144196,44.131851 
	C180.298447,44.110268 180.609406,44.293892 180.998535,44.746063 
z"/>
<path fill="#5B74B5" opacity="1.000000" stroke="none" 
	d="
M186.007202,49.741589 
	C185.825272,49.784184 185.565750,49.555016 185.146179,49.120583 
	C185.300629,49.100159 185.615112,49.284992 186.007202,49.741589 
z"/>
<path fill="#ABB7D4" opacity="1.000000" stroke="none" 
	d="
M170.101135,45.262215 
	C170.465286,45.191921 170.782196,45.395351 171.015106,45.879677 
	C170.638718,45.952362 170.346298,45.744152 170.101135,45.262215 
z"/>
<path fill="#5B74B5" opacity="1.000000" stroke="none" 
	d="
M181.989975,45.754997 
	C181.820358,45.787308 181.567719,45.553112 181.147812,45.121613 
	C181.289337,45.112370 181.598160,45.300430 181.989975,45.754997 
z"/>
<path fill="#5B74B5" opacity="1.000000" stroke="none" 
	d="
M185.007202,48.741608 
	C184.825241,48.784214 184.565750,48.555035 184.146179,48.120613 
	C184.300629,48.100189 184.615128,48.285007 185.007202,48.741608 
z"/>
<path fill="#5B74B5" opacity="1.000000" stroke="none" 
	d="
M182.993225,46.753742 
	C182.824615,46.786449 182.570343,46.553139 182.146942,46.123505 
	C182.287735,46.114025 182.597626,46.300877 182.993225,46.753742 
z"/>
<path fill="#5C76B5" opacity="1.000000" stroke="none" 
	d="
M65.991302,158.266327 
	C66.183281,158.214111 66.451576,158.431778 66.861832,158.868073 
	C66.691734,158.903198 66.379677,158.719727 65.991302,158.266327 
z"/>
<path fill="#9DABD0" opacity="1.000000" stroke="none" 
	d="
M80.060059,161.685822 
	C79.755501,161.812485 79.354134,161.679855 79.002533,161.195724 
	C79.355957,161.038330 79.659607,161.232437 80.060059,161.685822 
z"/>
<path fill="#5C76B5" opacity="1.000000" stroke="none" 
	d="
M69.000168,161.251373 
	C69.177269,161.212143 69.437973,161.440140 69.856178,161.875565 
	C69.703712,161.894852 69.393738,161.706741 69.000168,161.251373 
z"/>
<path fill="#5B74B5" opacity="1.000000" stroke="none" 
	d="
M189.007202,52.741440 
	C188.825012,52.784977 188.565140,52.556950 188.145340,52.124031 
	C188.300125,52.102718 188.614807,52.286301 189.007202,52.741440 
z"/>
<path fill="#9DABD0" opacity="1.000000" stroke="none" 
	d="
M79.059555,160.687469 
	C78.754440,160.813721 78.353386,160.680145 78.002380,160.195404 
	C78.356155,160.038696 78.659889,160.233170 79.059555,160.687469 
z"/>
<path fill="#5C76B5" opacity="1.000000" stroke="none" 
	d="
M67.992889,160.259720 
	C68.176605,160.214508 68.439453,160.440231 68.858765,160.874405 
	C68.700829,160.898804 68.386421,160.714722 67.992889,160.259720 
z"/>
<path fill="#9DABD0" opacity="1.000000" stroke="none" 
	d="
M78.060059,159.688110 
	C77.752457,159.813675 77.349243,159.679825 77.001526,159.194305 
	C77.359497,159.037994 77.661980,159.233337 78.060059,159.688110 
z"/>
<path fill="#5C76B5" opacity="1.000000" stroke="none" 
	d="
M66.990631,159.266708 
	C67.182297,159.214554 67.451256,159.432663 67.863541,159.869202 
	C67.693878,159.904083 67.380898,159.720535 66.990631,159.266708 
z"/>
<path fill="#9DABD0" opacity="1.000000" stroke="none" 
	d="
M77.062317,158.681870 
	C76.752174,158.811783 76.348351,158.681549 76.001228,158.196793 
	C76.361488,158.035416 76.665062,158.228561 77.062317,158.681870 
z"/>
<path fill="#5B74B5" opacity="1.000000" stroke="none" 
	d="
M184.007065,47.741310 
	C183.824768,47.785286 183.564728,47.557549 183.144226,47.125431 
	C183.298950,47.103901 183.614151,47.286747 184.007065,47.741310 
z"/>
<path fill="#5B74B5" opacity="1.000000" stroke="none" 
	d="
M169.994934,36.715828 
	C169.798096,36.826096 169.506912,36.656479 169.023193,36.319145 
	C169.187317,36.246265 169.543945,36.341103 169.994934,36.715828 
z"/>
<path fill="#9DABD0" opacity="1.000000" stroke="none" 
	d="
M76.063248,157.681870 
	C75.753639,157.810928 75.349693,157.679932 75.001740,157.195557 
	C75.361465,157.035385 75.665192,157.228607 76.063248,157.681870 
z"/>
<path fill="#5C76B5" opacity="1.000000" stroke="none" 
	d="
M65.131378,156.994659 
	C65.377403,156.978500 65.589836,157.274323 65.893494,157.827026 
	C65.689079,157.824829 65.393433,157.565735 65.131378,156.994659 
z"/>
<path fill="#9DABD0" opacity="1.000000" stroke="none" 
	d="
M75.063293,156.681900 
	C74.753662,156.810928 74.349716,156.679886 74.001755,156.195496 
	C74.361488,156.035370 74.665230,156.228592 75.063293,156.681900 
z"/>
<path fill="#9DABD0" opacity="1.000000" stroke="none" 
	d="
M74.063599,155.682281 
	C73.750671,155.811569 73.343697,155.681107 72.998703,155.196655 
	C73.363640,155.035965 73.666603,155.229263 74.063599,155.682281 
z"/>
<path fill="#5C76B5" opacity="1.000000" stroke="none" 
	d="
M64.012840,155.246338 
	C64.169571,155.245392 64.417610,155.524200 64.850693,156.014465 
	C64.725212,155.992645 64.414680,155.759369 64.012840,155.246338 
z"/>
<path fill="#9DABD0" opacity="1.000000" stroke="none" 
	d="
M73.062828,154.679901 
	C72.750511,154.810623 72.343903,154.682159 71.998764,154.198212 
	C72.363007,154.035385 72.665764,154.228073 73.062828,154.679901 
z"/>
<path fill="#3052AA" opacity="1.000000" stroke="none" 
	d="
M79.730560,115.747696 
	C77.655441,109.812439 72.868607,108.809082 67.948524,108.605598 
	C61.296703,108.330498 54.625034,108.567505 47.962494,108.511574 
	C38.146095,108.429169 31.273125,103.140488 30.790098,95.376373 
	C30.157248,85.203979 35.891296,77.998306 46.403915,77.317238 
	C57.682293,76.586555 69.028145,76.812515 80.343399,76.865456 
	C81.492310,76.870834 82.633354,78.555618 83.778053,79.461067 
	C82.575638,80.445320 81.392487,82.255371 80.167786,82.283936 
	C69.845581,82.524712 59.504761,82.176254 49.194721,82.607315 
	C45.953190,82.742844 42.032436,83.921898 39.805004,86.062103 
	C37.664558,88.118736 36.381916,92.046921 36.411240,95.136688 
	C36.448395,99.051407 39.557423,101.976852 43.583755,102.288864 
	C52.019497,102.942596 60.541008,102.657616 68.937416,103.578041 
	C72.992844,104.022614 77.439354,105.531853 80.659698,107.953880 
	C86.537018,112.374229 86.840622,118.895119 84.873344,125.642036 
	C83.137032,131.596817 78.782684,134.439270 73.066345,134.701691 
	C61.115173,135.250290 49.141434,135.374466 37.175846,135.429245 
	C36.080570,135.434265 34.977261,133.683640 33.877678,132.748260 
	C34.999332,131.663788 36.088337,129.681580 37.247910,129.639404 
	C45.233284,129.348938 53.233406,129.463409 61.228783,129.448532 
	C63.061104,129.445114 64.893448,129.449142 66.725754,129.443054 
	C78.372353,129.404388 80.073273,127.673973 79.730560,115.747696 
z"/>
<path fill="#161212" opacity="1.000000" stroke="none" 
	d="
M67.488037,114.708466 
	C59.562828,114.920593 51.265530,114.986023 42.504608,115.007416 
	C50.399303,114.829506 58.757626,114.695641 67.488037,114.708466 
z"/>
<path fill="#3053AB" opacity="1.000000" stroke="none" 
	d="
M230.225159,100.000099 
	C230.224930,109.825874 230.365112,119.155281 230.125153,128.474899 
	C230.065384,130.796860 229.046234,134.916290 228.008026,135.068359 
	C223.994186,135.656174 219.247314,137.329117 216.077499,132.856277 
	C210.982391,125.666702 205.962845,118.423409 200.934418,111.186783 
	C195.052795,102.722244 189.276627,94.182281 183.247833,85.824257 
	C182.256653,84.450150 180.202820,83.842575 178.640076,82.880737 
	C178.137711,84.513741 177.212723,86.143250 177.199173,87.780296 
	C177.080704,102.101097 177.143295,116.423279 177.100647,130.744904 
	C177.094528,132.798508 177.686371,135.370956 174.280991,135.477600 
	C170.552475,135.594330 171.091782,132.845261 171.086838,130.595856 
	C171.053207,115.274986 170.959229,99.952568 171.167465,84.634499 
	C171.203094,82.012939 172.146896,77.450607 173.439713,77.155846 
	C177.772888,76.167923 182.835403,75.224884 186.175949,79.979095 
	C189.425995,84.604500 192.651566,89.247299 195.861008,93.901001 
	C203.223892,104.577240 210.508759,115.308350 217.996918,125.895805 
	C218.998199,127.311485 220.994217,128.023621 222.529587,129.061554 
	C223.126099,127.329918 224.219849,125.604004 224.239853,123.865730 
	C224.389267,110.877937 224.324219,97.887703 224.332642,84.898232 
	C224.333603,83.399727 224.031326,81.784355 224.492554,80.436272 
	C224.936935,79.137398 226.188538,78.114693 227.085495,76.970657 
	C228.116287,78.152603 229.976685,79.292908 230.038452,80.523491 
	C230.355316,86.836250 230.209305,93.172234 230.225159,100.000099 
z"/>
<path fill="#171314" opacity="1.000000" stroke="none" 
	d="
M165.980438,140.778809 
	C165.755447,118.064171 165.709320,94.959839 165.778900,71.394035 
	C166.268417,72.867104 166.959015,74.800323 166.967087,76.736389 
	C167.047958,96.166702 167.039093,115.597557 166.979736,135.028030 
	C166.974289,136.815872 166.445221,138.602112 165.980438,140.778809 
z"/>
<path fill="#3054AE" opacity="1.000000" stroke="none" 
	d="
M148.670807,76.754021 
	C150.366592,77.745117 151.601913,78.725105 152.837250,79.705093 
	C151.514862,80.576332 150.245346,82.084236 148.860138,82.199303 
	C144.725952,82.542732 140.534302,82.542053 136.388016,82.293343 
	C132.301315,82.048218 130.855927,83.517929 130.917191,87.702225 
	C131.124344,101.849579 131.023453,116.002083 130.953812,130.152191 
	C130.943298,132.291077 131.764542,135.247543 128.030975,135.291901 
	C124.293213,135.336349 125.027412,132.401611 125.017815,130.237976 
	C124.955055,116.087807 124.861656,101.935631 125.053062,87.787827 
	C125.108307,83.703827 123.837563,82.033569 119.657883,82.294098 
	C115.512825,82.552467 111.320763,82.541389 107.185532,82.204269 
	C105.779091,82.089615 104.482796,80.623833 103.136177,79.775436 
	C104.509972,78.769272 105.869827,76.911613 107.259705,76.888878 
	C120.907059,76.665550 134.559402,76.747581 148.670807,76.754021 
z"/>
</svg>